<svg width="300" height="200" xmlns="http://www.w3.org/2000/svg">
  <defs>
    <linearGradient id="bg" x1="0%" y1="0%" x2="100%" y2="100%">
      <stop offset="0%" style="stop-color:#87ceeb;stop-opacity:1" />
      <stop offset="100%" style="stop-color:#4682b4;stop-opacity:1" />
    </linearGradient>
  </defs>
  
  <!-- Sky background -->
  <rect width="300" height="200" fill="url(#bg)"/>
  
  <!-- Buildings -->
  <rect x="20" y="120" width="40" height="80" fill="#2c3e50"/>
  <rect x="80" y="100" width="35" height="100" fill="#34495e"/>
  <rect x="130" y="110" width="30" height="90" fill="#2c3e50"/>
  <rect x="180" y="95" width="45" height="105" fill="#34495e"/>
  <rect x="240" y="125" width="35" height="75" fill="#2c3e50"/>
  
  <!-- Gorilla 1 -->
  <ellipse cx="50" cy="110" rx="15" ry="20" fill="#8b4513"/>
  <circle cx="50" cy="95" r="12" fill="#8b4513"/>
  <circle cx="45" cy="92" r="2" fill="#000"/>
  <circle cx="55" cy="92" r="2" fill="#000"/>
  <ellipse cx="42" cy="105" rx="6" ry="12" fill="#8b4513"/>
  <ellipse cx="58" cy="105" rx="6" ry="12" fill="#8b4513"/>
  
  <!-- Gorilla 2 -->
  <ellipse cx="200" cy="85" rx="15" ry="20" fill="#8b4513"/>
  <circle cx="200" cy="70" r="12" fill="#8b4513"/>
  <circle cx="195" cy="67" r="2" fill="#000"/>
  <circle cx="205" cy="67" r="2" fill="#000"/>
  <ellipse cx="192" cy="80" rx="6" ry="12" fill="#8b4513"/>
  <ellipse cx="208" cy="80" rx="6" ry="12" fill="#8b4513"/>
  
  <!-- Flying banana -->
  <ellipse cx="125" cy="60" rx="8" ry="3" fill="#f1c40f" transform="rotate(30 125 60)"/>
  <path d="M 120 58 Q 125 55 130 58" stroke="#8b4513" stroke-width="1" fill="none"/>
  
  <!-- Trajectory line -->
  <path d="M 65 100 Q 95 50 125 60" stroke="#ecf0f1" stroke-width="1" fill="none" opacity="0.6" stroke-dasharray="3,3"/>
</svg>